<svg width="22" height="24" viewBox="0 0 22 24" fill="none" xmlns="http://www.w3.org/2000/svg">
<path d="M19.7753 8.90641L12.4742 4.6768L5.22344 0.497546C4.5185 0.094726 3.71286 -0.00597817 3.00793 0.195432C2.30299 0.396842 1.64841 0.850013 1.24559 1.55495C1.09454 1.75636 1.04418 2.00812 0.943479 2.25988C0.893126 2.41094 0.893126 2.61235 0.842773 2.81376C0.842773 2.86411 0.842773 2.96482 0.842773 3.01517V11.5751V20.135C0.842773 20.9406 1.19524 21.6959 1.69877 22.1995C2.25264 22.7533 2.95758 23.0555 3.76322 23.0555C4.21639 23.0555 5.17308 22.6526 5.42485 22.5016L12.5749 18.3727H12.6252L12.6756 18.3223L20.0774 14.0424C20.7824 13.6395 21.2355 12.985 21.4369 12.2297C21.4873 12.0786 21.4873 11.8772 21.4873 11.6758C21.4873 10.0142 19.7753 8.90641 19.7753 8.90641ZM18.7683 11.8772L11.4671 16.1068C11.4168 16.1068 11.3664 16.1572 11.3664 16.1572L4.21639 20.2861C4.16604 20.3364 3.91427 20.4371 3.81357 20.4371C3.71286 20.4371 3.61216 20.3868 3.51145 20.3364C3.4611 20.2861 3.41075 20.135 3.41075 20.0343V11.5247V3.01517V2.96482C3.41075 2.91446 3.41075 2.91446 3.41075 2.86411C3.41075 2.86411 3.41075 2.81376 3.4611 2.81376C3.4611 2.81376 3.51145 2.76341 3.51145 2.71305C3.56181 2.6627 3.66251 2.61235 3.71286 2.562C3.81357 2.562 3.91427 2.562 3.96463 2.562C4.01498 2.61235 4.06533 2.61235 4.11568 2.6627L11.2657 6.7916C11.3161 6.84196 11.3664 6.84196 11.3664 6.84196H11.4168L18.7179 11.0716C18.8186 11.1219 19.02 11.273 19.02 11.424C19.02 11.6254 18.869 11.8269 18.7683 11.8772Z" fill="white"/>
</svg>
